<?xml version="1.0" encoding="UTF-8"?><svg id="uuid-66f18722-d544-4c5b-a65f-8d7ec731ea23" xmlns="http://www.w3.org/2000/svg" width="84.4416" height="77.0037" xmlns:xlink="http://www.w3.org/1999/xlink" viewBox="0 0 84.4416 77.0037"><defs><clipPath id="uuid-2735d994-3125-4911-b83c-bd525db49df9"><rect width="84.4416" height="77.0037" fill="none"/></clipPath><clipPath id="uuid-a87cca17-3ae6-43df-aa9c-769eb169477a"><rect width="84.4416" height="77.0037" fill="none"/></clipPath><clipPath id="uuid-b16c9279-8e82-436c-898e-4dfae3d3cbc4"><rect width="84.4416" height="77.0037" fill="none"/></clipPath></defs><g clip-path="url(#uuid-2735d994-3125-4911-b83c-bd525db49df9)"><g clip-path="url(#uuid-a87cca17-3ae6-43df-aa9c-769eb169477a)"><path d="M13.6308,.0379l.02-.0339L77.7801,14.1757h6.6615v62.8281H11.9881c-2.513,0-4.5502-2.0372-4.5502-4.5502v-6.1562L13.6308,.0379Z" fill="#705a01"/><path d="M78.2288,63.0031H13.6308V.0379l.0199-.0379h60.0279c2.513,0,4.5502,2.0372,4.5502,4.5502V63.0031Z" fill="#dbae03"/><polygon points="0 71.2285 13.6507 63.0031 13.6507 0 0 8.2254 0 71.2285" fill="#eacd5d"/></g><g clip-path="url(#uuid-b16c9279-8e82-436c-898e-4dfae3d3cbc4)"><path d="M50.3054,20.3317v22.3965h4.4893v6.2852h-17.6577v-6.2852h4.4395V20.3317h-4.4395v-6.2354h17.6577v6.2354h-4.4893Z" fill="#fff"/></g></g></svg>